<?xml version="1.0" encoding="iso-8859-1"?>
<!-- Generator: Adobe Illustrator 19.0.0, SVG Export Plug-In . SVG Version: 6.00 Build 0)  -->
<svg version="1.1" id="Layer_1" xmlns="http://www.w3.org/2000/svg" xmlns:xlink="http://www.w3.org/1999/xlink" x="0px" y="0px"
	 viewBox="0 0 512 512" style="enable-background:new 0 0 512 512;" xml:space="preserve">
<path style="fill:#FF507D;" d="M421.644,24.381h-92.501v65.016h92.501c6.041,0,9.971-6.358,7.269-11.761L418.54,56.889
	l10.373-20.746C431.615,30.739,427.685,24.381,421.644,24.381z"/>
<rect x="329.14" y="24.381" style="fill:#D23C69;" width="24.381" height="65.02"/>
<path style="fill:#707487;" d="M329.143,365.714c-4.492,0-8.127-3.635-8.127-8.127V8.127c0-4.492,3.635-8.127,8.127-8.127
	s8.127,3.635,8.127,8.127v349.46C337.27,362.079,333.635,365.714,329.143,365.714z"/>
<rect x="321.02" y="195.05" style="fill:#5B5D6E;" width="16.254" height="24.381"/>
<rect x="223.49" y="308.82" style="fill:#7F8499;" width="65.02" height="73.14"/>
<path style="fill:#707487;" d="M256,333.206c-2.244,0-4.063,1.819-4.063,4.063v44.698h8.127V337.27
	C260.064,335.026,258.244,333.206,256,333.206z"/>
<path style="fill:#E6AF78;" d="M295.777,211.832l-19.031-9.516c-2.753-1.376-4.492-4.19-4.492-7.269v-16.254h-32.508v16.254
	c0,3.078-1.739,5.893-4.493,7.269l-19.031,9.516c-5.506,2.753-8.985,8.381-8.985,14.537v9.313h97.524v-9.313
	C304.762,220.213,301.284,214.585,295.777,211.832z"/>
<path style="fill:#FFF082;" d="M295.777,211.832l-14.824-7.412c-5.963,7.212-14.865,11.905-24.953,11.905
	c-10.089,0-18.991-4.693-24.953-11.905l-14.824,7.412c-5.506,2.753-8.985,8.381-8.985,14.538v90.583h97.524V226.37
	C304.762,220.213,301.284,214.585,295.777,211.832z"/>
<path style="fill:#D29B6E;" d="M239.746,178.794v16.254c0,1.734-0.598,3.349-1.572,4.706c5.529,2.182,11.531,3.421,17.826,3.421
	c6.295,0,12.297-1.239,17.826-3.421c-0.974-1.357-1.572-2.972-1.572-4.706v-16.254H239.746z"/>
<path style="fill:#F0C087;" d="M256,186.921L256,186.921c-17.954,0-32.508-14.554-32.508-32.508v-16.254
	c0-13.465,10.916-24.381,24.381-24.381h16.254c13.465,0,24.381,10.916,24.381,24.381v16.254
	C288.508,172.366,273.954,186.921,256,186.921z"/>
<path style="fill:#E6AF78;" d="M247.873,154.413v-16.254c0-12.073,8.797-22.028,20.317-23.971c-1.328-0.224-2.672-0.41-4.063-0.41
	h-16.254c-13.465,0-24.381,10.916-24.381,24.381v16.254c0,17.953,14.554,32.508,32.508,32.508c4.318,0,8.421-0.882,12.19-2.411
	C256.287,179.683,247.873,168.048,247.873,154.413z"/>
<path style="fill:#694B4B;" d="M223.492,138.159c0,0,24.381,8.127,65.016,8.127v-8.127c0-13.465-10.916-24.381-24.381-24.381
	h-16.254C234.408,113.778,223.492,124.693,223.492,138.159L223.492,138.159z"/>
<path style="fill:#5A4146;" d="M247.873,138.159c0-12.073,8.797-22.028,20.317-23.971c-1.328-0.224-2.672-0.41-4.063-0.41h-16.254
	c-13.465,0-24.381,10.916-24.381,24.381c0,0,8.741,2.89,24.381,5.224L247.873,138.159L247.873,138.159z"/>
<g>
	<path style="fill:#F0C087;" d="M228.371,341.333h-4.879c-4.488,0-8.127-3.639-8.127-8.127v-16.254h16.254v21.133
		C231.619,339.879,230.165,341.333,228.371,341.333z"/>
	<path style="fill:#F0C087;" d="M283.629,341.333h4.879c4.488,0,8.127-3.639,8.127-8.127v-16.254h-16.254v21.133
		C280.381,339.879,281.835,341.333,283.629,341.333z"/>
</g>
<g>
	<path style="fill:#FFDC64;" d="M225.117,230.805l-15.914-11.935c-1.2,2.287-1.965,4.817-1.965,7.499v90.583
		c0,4.488,3.639,8.127,8.127,8.127h8.127c4.488,0,8.127-3.639,8.127-8.127V243.81C231.619,238.693,229.21,233.875,225.117,230.805z"
		/>
	<path style="fill:#FFDC64;" d="M286.883,230.805c-4.093,3.07-6.502,7.888-6.502,13.004v73.143c0,4.488,3.639,8.127,8.127,8.127
		h8.127c4.488,0,8.127-3.639,8.127-8.127V226.37c0-2.682-0.764-5.212-1.965-7.499L286.883,230.805z"/>
</g>
<path id="SVGCleanerId_0" style="fill:#E6AF78;" d="M360.793,341.864l-19.031-9.516c-2.753-1.376-4.492-4.19-4.492-7.269v-16.254
	h-32.508v16.254c0,3.078-1.739,5.893-4.493,7.269l-19.031,9.516c-5.506,2.753-8.985,8.381-8.985,14.537v9.314h97.524v-9.314
	C369.778,350.245,366.3,344.617,360.793,341.864z"/>
<path style="fill:#B4E66E;" d="M360.793,341.864l-14.824-7.412c-5.963,7.212-14.865,11.905-24.953,11.905
	c-10.089,0-18.991-4.693-24.953-11.905l-14.824,7.412c-5.506,2.753-8.985,8.381-8.985,14.538v82.456
	c0,4.488,3.639,8.127,8.127,8.127h81.27c4.488,0,8.127-3.639,8.127-8.127v-82.456C369.778,350.245,366.3,344.617,360.793,341.864z"
	/>
<path id="SVGCleanerId_1" style="fill:#D29B6E;" d="M304.762,308.825v16.254c0,1.734-0.598,3.349-1.572,4.706
	c5.529,2.182,11.531,3.421,17.826,3.421s12.297-1.239,17.826-3.421c-0.974-1.357-1.572-2.972-1.572-4.706v-16.254H304.762z"/>
<path id="SVGCleanerId_2" style="fill:#F0C087;" d="M321.016,316.952L321.016,316.952c-17.954,0-32.508-14.554-32.508-32.508V268.19
	c0-13.465,10.916-24.381,24.381-24.381h16.254c13.465,0,24.381,10.916,24.381,24.381v16.254
	C353.524,302.398,338.97,316.952,321.016,316.952z"/>
<path id="SVGCleanerId_3" style="fill:#E6AF78;" d="M312.889,284.444V268.19c0-12.073,8.797-22.028,20.317-23.971
	c-1.328-0.224-2.672-0.41-4.063-0.41h-16.254c-13.465,0-24.381,10.916-24.381,24.381v16.254c0,17.953,14.554,32.508,32.508,32.508
	c4.318,0,8.421-0.882,12.19-2.411C321.303,309.714,312.889,298.08,312.889,284.444z"/>
<path id="SVGCleanerId_4" style="fill:#694B4B;" d="M288.508,268.19c0,0,24.381,8.127,65.016,8.127v-8.127
	c0-13.465-10.916-24.381-24.381-24.381h-16.254C299.424,243.81,288.508,254.725,288.508,268.19L288.508,268.19z"/>
<path id="SVGCleanerId_5" style="fill:#5A4146;" d="M312.889,268.19c0-12.073,8.797-22.028,20.317-23.971
	c-1.328-0.224-2.672-0.41-4.063-0.41h-16.254c-13.465,0-24.381,10.916-24.381,24.381c0,0,8.741,2.89,24.381,5.224V268.19z"/>
<g>
	<path style="fill:#A0D755;" d="M290.133,360.837l-15.914-11.935c-1.2,2.287-1.965,4.817-1.965,7.499v82.456
		c0,4.488,3.639,8.127,8.127,8.127h16.254v-73.143C296.635,368.725,294.226,363.907,290.133,360.837z"/>
	<path style="fill:#A0D755;" d="M351.899,360.837c-4.093,3.07-6.502,7.888-6.502,13.004v73.143h16.254
		c4.488,0,8.127-3.639,8.127-8.127v-82.456c0-2.682-0.764-5.212-1.965-7.499L351.899,360.837z"/>
</g>
<rect x="158.48" y="438.86" style="fill:#7F8499;" width="65.02" height="73.14"/>
<path style="fill:#707487;" d="M190.984,463.238c-2.244,0-4.063,1.819-4.063,4.063V512h8.127v-44.698
	C195.048,465.058,193.228,463.238,190.984,463.238z"/>
<path style="fill:#E6AF78;" d="M230.761,341.864l-19.031-9.516c-2.753-1.376-4.492-4.19-4.492-7.269v-16.254H174.73v16.254
	c0,3.078-1.739,5.893-4.493,7.269l-19.031,9.516c-5.506,2.753-8.985,8.381-8.985,14.537v9.314h97.524v-9.314
	C239.746,350.245,236.268,344.617,230.761,341.864z"/>
<path style="fill:#B4E66E;" d="M230.761,341.864l-14.824-7.412c-5.963,7.212-14.865,11.905-24.953,11.905
	s-18.991-4.693-24.953-11.905l-14.824,7.412c-5.506,2.753-8.985,8.381-8.985,14.538v90.583h97.524v-90.583
	C239.746,350.245,236.268,344.617,230.761,341.864z"/>
<path style="fill:#D29B6E;" d="M174.73,308.825v16.254c0,1.734-0.598,3.349-1.572,4.706c5.529,2.182,11.531,3.421,17.826,3.421
	s12.297-1.239,17.826-3.421c-0.974-1.357-1.572-2.972-1.572-4.706v-16.254H174.73z"/>
<path style="fill:#F0C087;" d="M190.984,316.952L190.984,316.952c-17.954,0-32.508-14.554-32.508-32.508V268.19
	c0-13.465,10.916-24.381,24.381-24.381h16.254c13.465,0,24.381,10.916,24.381,24.381v16.254
	C223.492,302.398,208.938,316.952,190.984,316.952z"/>
<path style="fill:#E6AF78;" d="M182.857,284.444V268.19c0-12.073,8.797-22.028,20.317-23.971c-1.328-0.224-2.672-0.41-4.063-0.41
	h-16.254c-13.465,0-24.381,10.916-24.381,24.381v16.254c0,17.953,14.554,32.508,32.508,32.508c4.318,0,8.421-0.882,12.19-2.411
	C191.271,309.714,182.857,298.08,182.857,284.444z"/>
<path style="fill:#694B4B;" d="M158.476,268.19c0,0,24.381,8.127,65.016,8.127v-8.127c0-13.465-10.916-24.381-24.381-24.381h-16.254
	C169.392,243.81,158.476,254.725,158.476,268.19L158.476,268.19z"/>
<path style="fill:#5A4146;" d="M182.857,268.19c0-12.073,8.797-22.028,20.317-23.971c-1.328-0.224-2.672-0.41-4.063-0.41h-16.254
	c-13.465,0-24.381,10.916-24.381,24.381c0,0,8.741,2.89,24.381,5.224V268.19z"/>
<g>
	<path style="fill:#F0C087;" d="M163.355,471.365h-4.879c-4.488,0-8.127-3.639-8.127-8.127v-16.254h16.254v21.133
		C166.603,469.911,165.149,471.365,163.355,471.365z"/>
	<path style="fill:#F0C087;" d="M218.613,471.365h4.879c4.488,0,8.127-3.639,8.127-8.127v-16.254h-16.254v21.133
		C215.365,469.911,216.819,471.365,218.613,471.365z"/>
</g>
<g>
	<path style="fill:#A0D755;" d="M160.101,360.837l-15.914-11.935c-1.2,2.287-1.965,4.817-1.965,7.499v90.583
		c0,4.488,3.639,8.127,8.127,8.127h8.127c4.488,0,8.127-3.639,8.127-8.127v-73.143C166.603,368.725,164.194,363.907,160.101,360.837
		z"/>
	<path style="fill:#A0D755;" d="M221.867,360.837c-4.093,3.07-6.502,7.888-6.502,13.004v73.143c0,4.488,3.639,8.127,8.127,8.127
		h8.127c4.488,0,8.127-3.639,8.127-8.127v-90.583c0-2.682-0.764-5.212-1.965-7.499L221.867,360.837z"/>
</g>
<rect x="288.51" y="438.86" style="fill:#7F8499;" width="65.02" height="73.14"/>
<path style="fill:#707487;" d="M321.016,463.238c-2.244,0-4.063,1.819-4.063,4.063V512h8.127v-44.698
	C325.079,465.058,323.26,463.238,321.016,463.238z"/>
<g>
	<path id="SVGCleanerId_0_1_" style="fill:#E6AF78;" d="M360.793,341.864l-19.031-9.516c-2.753-1.376-4.492-4.19-4.492-7.269
		v-16.254h-32.508v16.254c0,3.078-1.739,5.893-4.493,7.269l-19.031,9.516c-5.506,2.753-8.985,8.381-8.985,14.537v9.314h97.524
		v-9.314C369.778,350.245,366.3,344.617,360.793,341.864z"/>
</g>
<path style="fill:#B4E66E;" d="M360.793,341.864l-14.824-7.412c-5.963,7.212-14.865,11.905-24.953,11.905
	c-10.089,0-18.991-4.693-24.953-11.905l-14.824,7.412c-5.506,2.753-8.985,8.381-8.985,14.538v90.583h97.524v-90.583
	C369.778,350.245,366.3,344.617,360.793,341.864z"/>
<g>
	<path id="SVGCleanerId_1_1_" style="fill:#D29B6E;" d="M304.762,308.825v16.254c0,1.734-0.598,3.349-1.572,4.706
		c5.529,2.182,11.531,3.421,17.826,3.421s12.297-1.239,17.826-3.421c-0.974-1.357-1.572-2.972-1.572-4.706v-16.254H304.762z"/>
</g>
<g>
	<path id="SVGCleanerId_2_1_" style="fill:#F0C087;" d="M321.016,316.952L321.016,316.952c-17.954,0-32.508-14.554-32.508-32.508
		V268.19c0-13.465,10.916-24.381,24.381-24.381h16.254c13.465,0,24.381,10.916,24.381,24.381v16.254
		C353.524,302.398,338.97,316.952,321.016,316.952z"/>
</g>
<g>
	<path id="SVGCleanerId_3_1_" style="fill:#E6AF78;" d="M312.889,284.444V268.19c0-12.073,8.797-22.028,20.317-23.971
		c-1.328-0.224-2.672-0.41-4.063-0.41h-16.254c-13.465,0-24.381,10.916-24.381,24.381v16.254c0,17.953,14.554,32.508,32.508,32.508
		c4.318,0,8.421-0.882,12.19-2.411C321.303,309.714,312.889,298.08,312.889,284.444z"/>
</g>
<g>
	<path id="SVGCleanerId_4_1_" style="fill:#694B4B;" d="M288.508,268.19c0,0,24.381,8.127,65.016,8.127v-8.127
		c0-13.465-10.916-24.381-24.381-24.381h-16.254C299.424,243.81,288.508,254.725,288.508,268.19L288.508,268.19z"/>
</g>
<g>
	<path id="SVGCleanerId_5_1_" style="fill:#5A4146;" d="M312.889,268.19c0-12.073,8.797-22.028,20.317-23.971
		c-1.328-0.224-2.672-0.41-4.063-0.41h-16.254c-13.465,0-24.381,10.916-24.381,24.381c0,0,8.741,2.89,24.381,5.224V268.19z"/>
</g>
<g>
	<path style="fill:#F0C087;" d="M293.387,471.365h-4.879c-4.488,0-8.127-3.639-8.127-8.127v-16.254h16.254v21.133
		C296.635,469.911,295.181,471.365,293.387,471.365z"/>
	<path style="fill:#F0C087;" d="M348.645,471.365h4.879c4.488,0,8.127-3.639,8.127-8.127v-16.254h-16.254v21.133
		C345.397,469.911,346.851,471.365,348.645,471.365z"/>
</g>
<g>
	<path style="fill:#A0D755;" d="M290.133,360.837l-15.914-11.935c-1.2,2.287-1.965,4.817-1.965,7.499v90.583
		c0,4.488,3.639,8.127,8.127,8.127h8.127c4.488,0,8.127-3.639,8.127-8.127v-73.143C296.635,368.725,294.226,363.907,290.133,360.837
		z"/>
	<path style="fill:#A0D755;" d="M351.899,360.837c-4.093,3.07-6.502,7.888-6.502,13.004v73.143c0,4.488,3.639,8.127,8.127,8.127
		h8.127c4.488,0,8.127-3.639,8.127-8.127v-90.583c0-2.682-0.764-5.212-1.965-7.499L351.899,360.837z"/>
</g>
<path style="fill:#E6AF78;" d="M165.746,471.896l-19.031-9.516c-2.753-1.376-4.492-4.19-4.492-7.269v-16.254h-32.508v16.254
	c0,3.078-1.739,5.893-4.493,7.269l-19.031,9.516c-5.506,2.753-8.985,8.381-8.985,14.537v9.314h97.524v-9.314
	C174.73,480.277,171.252,474.649,165.746,471.896z"/>
<path style="fill:#00C3FF;" d="M165.746,471.895l-14.824-7.412c-5.963,7.212-14.865,11.905-24.953,11.905
	s-18.991-4.693-24.953-11.905l-14.824,7.412c-5.506,2.753-8.985,8.381-8.985,14.538v17.44c0,4.488,3.639,8.127,8.127,8.127h81.27
	c4.488,0,8.127-3.639,8.127-8.127v-17.44C174.73,480.277,171.252,474.649,165.746,471.895z"/>
<path style="fill:#D29B6E;" d="M109.714,438.857v16.254c0,1.734-0.598,3.349-1.572,4.706c5.529,2.182,11.531,3.421,17.826,3.421
	c6.295,0,12.297-1.239,17.826-3.421c-0.974-1.357-1.572-2.972-1.572-4.706v-16.254H109.714z"/>
<path style="fill:#F0C087;" d="M125.968,446.984L125.968,446.984c-17.954,0-32.508-14.554-32.508-32.508v-16.254
	c0-13.465,10.916-24.381,24.381-24.381h16.254c13.465,0,24.381,10.916,24.381,24.381v16.254
	C158.476,432.43,143.922,446.984,125.968,446.984z"/>
<path style="fill:#E6AF78;" d="M117.841,414.476v-16.254c0-12.073,8.797-22.028,20.317-23.971c-1.328-0.224-2.672-0.41-4.063-0.41
	h-16.254c-13.465,0-24.381,10.916-24.381,24.381v16.254c0,17.953,14.554,32.508,32.508,32.508c4.318,0,8.421-0.882,12.19-2.411
	C126.255,439.746,117.841,428.112,117.841,414.476z"/>
<path style="fill:#694B4B;" d="M93.46,398.222c0,0,24.381,8.127,65.016,8.127v-8.127c0-13.465-10.916-24.381-24.381-24.381h-16.254
	C104.376,373.841,93.46,384.757,93.46,398.222L93.46,398.222z"/>
<path style="fill:#5A4146;" d="M117.841,398.222c0-12.073,8.797-22.028,20.317-23.971c-1.328-0.224-2.672-0.41-4.063-0.41h-16.254
	c-13.465,0-24.381,10.916-24.381,24.381c0,0,8.741,2.89,24.381,5.224V398.222z"/>
<g>
	<path style="fill:#00AAF0;" d="M95.085,490.869l-15.914-11.935c-1.2,2.287-1.965,4.817-1.965,7.499v17.44
		c0,4.488,3.639,8.127,8.127,8.127h16.254v-8.127C101.587,498.757,99.178,493.939,95.085,490.869z"/>
	<path style="fill:#00AAF0;" d="M156.852,490.869c-4.093,3.07-6.502,7.888-6.502,13.004V512h16.254c4.488,0,8.127-3.639,8.127-8.127
		v-17.44c0-2.682-0.764-5.212-1.965-7.499L156.852,490.869z"/>
</g>
<path style="fill:#E6AF78;" d="M295.777,471.896l-19.031-9.516c-2.753-1.376-4.492-4.19-4.492-7.269v-16.254h-32.508v16.254
	c0,3.078-1.739,5.893-4.493,7.269l-19.031,9.516c-5.506,2.753-8.985,8.381-8.985,14.537v9.314h97.524v-9.314
	C304.762,480.277,301.284,474.649,295.777,471.896z"/>
<path style="fill:#00C3FF;" d="M295.777,471.895l-14.824-7.412c-5.963,7.212-14.865,11.905-24.953,11.905
	c-10.089,0-18.991-4.693-24.953-11.905l-14.824,7.412c-5.506,2.753-8.985,8.381-8.985,14.538v17.44c0,4.488,3.639,8.127,8.127,8.127
	h81.27c4.488,0,8.127-3.639,8.127-8.127v-17.44C304.762,480.277,301.284,474.649,295.777,471.895z"/>
<path style="fill:#D29B6E;" d="M239.746,438.857v16.254c0,1.734-0.598,3.349-1.572,4.706c5.529,2.182,11.531,3.421,17.826,3.421
	c6.295,0,12.297-1.239,17.826-3.421c-0.974-1.357-1.572-2.972-1.572-4.706v-16.254H239.746z"/>
<path style="fill:#F0C087;" d="M256,446.984L256,446.984c-17.954,0-32.508-14.554-32.508-32.508v-16.254
	c0-13.465,10.916-24.381,24.381-24.381h16.254c13.465,0,24.381,10.916,24.381,24.381v16.254
	C288.508,432.43,273.954,446.984,256,446.984z"/>
<path style="fill:#E6AF78;" d="M247.873,414.476v-16.254c0-12.073,8.797-22.028,20.317-23.971c-1.328-0.224-2.672-0.41-4.063-0.41
	h-16.254c-13.465,0-24.381,10.916-24.381,24.381v16.254c0,17.953,14.554,32.508,32.508,32.508c4.318,0,8.421-0.882,12.19-2.411
	C256.287,439.746,247.873,428.112,247.873,414.476z"/>
<path style="fill:#694B4B;" d="M223.492,398.222c0,0,24.381,8.127,65.016,8.127v-8.127c0-13.465-10.916-24.381-24.381-24.381
	h-16.254C234.408,373.841,223.492,384.757,223.492,398.222L223.492,398.222z"/>
<path style="fill:#5A4146;" d="M247.873,398.222c0-12.073,8.797-22.028,20.317-23.971c-1.328-0.224-2.672-0.41-4.063-0.41h-16.254
	c-13.465,0-24.381,10.916-24.381,24.381c0,0,8.741,2.89,24.381,5.224L247.873,398.222L247.873,398.222z"/>
<g>
	<path style="fill:#00AAF0;" d="M225.117,490.869l-15.914-11.935c-1.2,2.287-1.965,4.817-1.965,7.499v17.44
		c0,4.488,3.639,8.127,8.127,8.127h16.254v-8.127C231.619,498.757,229.21,493.939,225.117,490.869z"/>
	<path style="fill:#00AAF0;" d="M286.883,490.869c-4.093,3.07-6.502,7.888-6.502,13.004V512h16.254c4.488,0,8.127-3.639,8.127-8.127
		v-17.44c0-2.682-0.764-5.212-1.965-7.499L286.883,490.869z"/>
</g>
<path style="fill:#E6AF78;" d="M425.809,471.896l-19.031-9.516c-2.753-1.376-4.492-4.19-4.492-7.269v-16.254h-32.508v16.254
	c0,3.078-1.739,5.893-4.493,7.269l-19.031,9.516c-5.506,2.753-8.985,8.381-8.985,14.537v9.314h97.524v-9.314
	C434.794,480.277,431.315,474.649,425.809,471.896z"/>
<path style="fill:#00C3FF;" d="M425.809,471.895l-14.824-7.412c-5.963,7.212-14.865,11.905-24.953,11.905
	c-10.089,0-18.991-4.693-24.953-11.905l-14.824,7.412c-5.506,2.753-8.985,8.381-8.985,14.538v17.44c0,4.488,3.639,8.127,8.127,8.127
	h81.27c4.488,0,8.127-3.639,8.127-8.127v-17.44C434.794,480.277,431.315,474.649,425.809,471.895z"/>
<path style="fill:#D29B6E;" d="M369.778,438.857v16.254c0,1.734-0.598,3.349-1.572,4.706c5.529,2.182,11.531,3.421,17.826,3.421
	s12.297-1.239,17.826-3.421c-0.974-1.357-1.572-2.972-1.572-4.706v-16.254H369.778z"/>
<path style="fill:#F0C087;" d="M386.032,446.984L386.032,446.984c-17.954,0-32.508-14.554-32.508-32.508v-16.254
	c0-13.465,10.916-24.381,24.381-24.381h16.254c13.465,0,24.381,10.916,24.381,24.381v16.254
	C418.54,432.43,403.985,446.984,386.032,446.984z"/>
<path style="fill:#E6AF78;" d="M377.905,414.476v-16.254c0-12.073,8.797-22.028,20.317-23.971c-1.328-0.224-2.672-0.41-4.063-0.41
	h-16.254c-13.465,0-24.381,10.916-24.381,24.381v16.254c0,17.953,14.554,32.508,32.508,32.508c4.318,0,8.421-0.882,12.19-2.411
	C386.318,439.746,377.905,428.112,377.905,414.476z"/>
<path style="fill:#694B4B;" d="M353.524,398.222c0,0,24.381,8.127,65.016,8.127v-8.127c0-13.465-10.916-24.381-24.381-24.381
	h-16.254C364.44,373.841,353.524,384.757,353.524,398.222L353.524,398.222z"/>
<path style="fill:#5A4146;" d="M377.905,398.222c0-12.073,8.797-22.028,20.317-23.971c-1.328-0.224-2.672-0.41-4.063-0.41h-16.254
	c-13.465,0-24.381,10.916-24.381,24.381c0,0,8.741,2.89,24.381,5.224V398.222z"/>
<g>
	<path style="fill:#00AAF0;" d="M355.148,490.869l-15.914-11.935c-1.2,2.287-1.965,4.817-1.965,7.499v17.44
		c0,4.488,3.639,8.127,8.127,8.127h16.254v-8.127C361.651,498.757,359.242,493.939,355.148,490.869z"/>
	<path style="fill:#00AAF0;" d="M416.915,490.869c-4.093,3.07-6.502,7.888-6.502,13.004V512h16.254c4.488,0,8.127-3.639,8.127-8.127
		v-17.44c0-2.682-0.764-5.212-1.965-7.499L416.915,490.869z"/>
</g>
<path style="fill:#F0C087;" d="M337.27,203.175h-8.127c-8.977,0-16.254-7.277-16.254-16.254l0,0c0-8.977,7.277-16.254,16.254-16.254
	h8.127c8.977,0,16.254,7.277,16.254,16.254l0,0C353.524,195.897,346.247,203.175,337.27,203.175z"/>
<path style="fill:#E6AF78;" d="M329.143,186.921c0-7.565,5.192-13.867,12.19-15.679c-1.306-0.339-2.652-0.575-4.064-0.575h-8.127
	c-8.977,0-16.254,7.277-16.254,16.254c0,8.976,7.277,16.254,16.254,16.254h8.127c1.412,0,2.757-0.236,4.064-0.575
	C334.335,200.788,329.143,194.486,329.143,186.921z"/>
<g>
</g>
<g>
</g>
<g>
</g>
<g>
</g>
<g>
</g>
<g>
</g>
<g>
</g>
<g>
</g>
<g>
</g>
<g>
</g>
<g>
</g>
<g>
</g>
<g>
</g>
<g>
</g>
<g>
</g>
</svg>
